<svg xmlns="http://www.w3.org/2000/svg" width="62.424" height="62.704" viewBox="0 0 62.424 62.704"><g transform="translate(-0.576 -0.896)"><path d="M49,50.8,24.4,57.5a7.744,7.744,0,0,1-8.6-3.3L1.8,32.8a7.822,7.822,0,0,1,.5-9.1l16-19.9a7.8,7.8,0,0,1,8.8-2.4L51,10.5a7.7,7.7,0,0,1,5,7.7L54.7,43.7A7.661,7.661,0,0,1,49,50.8Z" fill="#e6af2e"/><path d="M41.3,38.5a3.421,3.421,0,0,0-2.5-3.2V26.8A.789.789,0,0,0,38,26a.86.86,0,0,0-.8.8v8.5a3.256,3.256,0,0,0-2.4,2.4h-6a.8.8,0,0,0,0,1.6h6A3.421,3.421,0,0,0,38,41.8,3.329,3.329,0,0,0,41.3,38.5ZM38,40.1a1.685,1.685,0,0,1-1.7-1.7,1.7,1.7,0,0,1,3.4,0A1.685,1.685,0,0,1,38,40.1Z" fill="#0c090d"/><path d="M38,21.8a.789.789,0,0,0,.8-.8v-.8a.789.789,0,0,0-.8-.8.86.86,0,0,0-.8.8V21A.789.789,0,0,0,38,21.8Z" fill="#0c090d"/><path d="M37.2,56v.8a.789.789,0,0,0,.8.8.86.86,0,0,0,.8-.8V56a.8.8,0,0,0-1.6,0Z" fill="#0c090d"/><path d="M56.3,39.3a.8.8,0,1,0,0-1.6h-.8a.8.8,0,0,0,0,1.6Z" fill="#0c090d"/><path d="M19.7,37.6a.8.8,0,1,0,0,1.6h.8a.8.8,0,1,0,0-1.6Z" fill="#0c090d"/><path d="M50.4,26.9a1.421,1.421,0,0,0,.6-.2l.6-.6a.849.849,0,1,0-1.2-1.2l-.6.6a.913.913,0,0,0,0,1.2A1.072,1.072,0,0,0,50.4,26.9Z" fill="#0c090d"/><path d="M25,50.3l-.6.6a.913.913,0,0,0,0,1.2.735.735,0,0,0,.6.2,1.421,1.421,0,0,0,.6-.2l.6-.6a.913.913,0,0,0,0-1.2A.815.815,0,0,0,25,50.3Z" fill="#0c090d"/><path d="M26.2,25.5l-.6-.6a.849.849,0,0,0-1.2,1.2l.6.6a.735.735,0,0,0,.6.2,1.421,1.421,0,0,0,.6-.2A.913.913,0,0,0,26.2,25.5Z" fill="#0c090d"/><path d="M38,13.6a25,25,0,1,0,0,50,25.676,25.676,0,0,0,8.7-1.5.854.854,0,1,0-.6-1.6A22.285,22.285,0,0,1,38,61.9,23.35,23.35,0,1,1,61.3,38.5a24.63,24.63,0,0,1-1.4,8.1.854.854,0,1,0,1.6.6A25.676,25.676,0,0,0,63,38.5,24.988,24.988,0,0,0,38,13.6Z" fill="#0c090d"/><path d="M50.7,58A3.3,3.3,0,0,1,53,54.9v-.1a2.906,2.906,0,0,1-1.9-2.6c0-1.9,1.6-3.1,3.6-3.1,2.3,0,3.4,1.4,3.4,2.9a2.874,2.874,0,0,1-1.9,2.7v.1a3.249,3.249,0,0,1,2.4,3c0,2-1.7,3.4-4,3.4C52.2,61.2,50.7,59.7,50.7,58Zm6.3-.1c0-1.4-1-2.1-2.6-2.6a2.507,2.507,0,0,0-2.1,2.4A2.232,2.232,0,0,0,54.7,60,2.106,2.106,0,0,0,57,57.9Zm-4.3-5.8c0,1.2.9,1.8,2.2,2.2a2.325,2.325,0,0,0,1.8-2.1,1.86,1.86,0,0,0-2-1.9A1.743,1.743,0,0,0,52.7,52.1Z" fill="#616161"/></g></svg>