<svg xmlns="http://www.w3.org/2000/svg" width="72.228" height="72.204" viewBox="0 0 72.228 72.204"><g transform="translate(-0.576 -0.896)"><path d="M56.785,58.823,28.23,66.6a8.989,8.989,0,0,1-9.983-3.831L2,37.929a9.08,9.08,0,0,1,.58-10.563l18.572-23.1A9.048,9.048,0,0,1,31.364,1.481L59.106,12.044a8.935,8.935,0,0,1,5.8,8.938L63.4,50.581A8.893,8.893,0,0,1,56.785,58.823Z" transform="translate(0 0)" fill="#e6af2e"/><g transform="translate(5.015 26.205)"><path d="M64.179,53.344a7.2,7.2,0,0,0-2.67.464L60.349,51.6a10.054,10.054,0,0,1,3.714-.7,10.986,10.986,0,0,1,4.295.929,1.067,1.067,0,1,0,.813-1.973,12.971,12.971,0,0,0-5.107-1.045,13.352,13.352,0,0,0-4.759.929L55.241,41.62h2.9a1.04,1.04,0,0,0,1.045-1.045V35.933a1.04,1.04,0,0,0-1.045-1.045H55.822A3.292,3.292,0,0,0,52.8,36.745l-1.161-2.322a3.4,3.4,0,0,0-3.134-1.857H46.42a1.045,1.045,0,0,0,0,2.089h2.089a1.277,1.277,0,0,1,1.161.7l2.9,5.688-.58.232a3.4,3.4,0,0,0-1.857,3.134V55.9h-9.4a3.616,3.616,0,0,1-3.6-3.6V47.54h.116a3.492,3.492,0,0,0,3.482-3.482,3.42,3.42,0,0,0-3.482-3.482h-9.4A3.341,3.341,0,0,0,25.41,41.62v-16.6A2.328,2.328,0,0,0,23.088,22.7H6.722A2.328,2.328,0,0,0,4.4,25.022V41.388A2.328,2.328,0,0,0,6.722,43.71H9.159c0,.232-.116.464-.116.7a2.85,2.85,0,0,0,2.9,2.786h5.92A8.107,8.107,0,0,0,16.008,48.7a14.121,14.121,0,0,0-4.179,6.5,3.192,3.192,0,0,0,.58,2.67,3.03,3.03,0,0,0,2.322,1.161h.58a8.836,8.836,0,0,0-.348,2.438A8.1,8.1,0,0,0,31.1,62.514H52.339a1.04,1.04,0,0,0,1.045-1.045,12.79,12.79,0,0,1,.232-2.089,10.427,10.427,0,0,1,4.759-6.848l1.161,2.205a8.4,8.4,0,0,0-3.6,6.732,8.125,8.125,0,0,0,16.251,0A7.978,7.978,0,0,0,64.179,53.344Zm-36.332-10.8h9.4a1.277,1.277,0,0,1,0,2.554h-9.4a1.277,1.277,0,1,1,0-2.554ZM6.605,25.022h0l16.483-.116a.114.114,0,0,1,.116.116v2.438H6.605Zm.116,16.6h0L6.605,29.665H23.2V41.5a.114.114,0,0,1-.116.116ZM11.945,45.1a.749.749,0,0,1-.7-.7.6.6,0,0,1,.232-.464c.116-.116.232-.116.348-.232H24.365v.116A4.936,4.936,0,0,0,24.6,45.1Zm2.786,11.724h0a.992.992,0,0,1-.7-.348.768.768,0,0,1-.116-.7A12.142,12.142,0,0,1,25.41,47.308c4.991,0,6.848,4.759,6.848,7.893a1.46,1.46,0,0,1-1.277,1.625Zm9.634,4.643a1.277,1.277,0,1,1-1.277-1.277A1.288,1.288,0,0,1,24.365,61.469Zm-1.277,5.92a5.945,5.945,0,0,1-5.92-5.92,6.238,6.238,0,0,1,.58-2.438h3.018a3.619,3.619,0,0,0-1.045,2.438A3.492,3.492,0,0,0,23.2,64.952a3.42,3.42,0,0,0,3.482-3.482,3.161,3.161,0,0,0-1.045-2.438H28.66a6.238,6.238,0,0,1,.58,2.438A6.149,6.149,0,0,1,23.088,67.389Zm28.555-8.474c-.116.464-.116.929-.232,1.509h-20.2a6.122,6.122,0,0,0-.348-1.393H31.1A3.583,3.583,0,0,0,34.58,55.2a11.318,11.318,0,0,0-2.205-6.616c-.348-.348-.7-.813-1.161-1.277h3.6v4.759a5.747,5.747,0,0,0,5.8,5.8H51.179a1.65,1.65,0,0,0,.7-.232A4.173,4.173,0,0,0,51.643,58.916Zm4.295-22.171h1.277v2.438H55.938a1.288,1.288,0,0,1-1.277-1.277A1.364,1.364,0,0,1,55.938,36.745Zm-3.6,19.617V44.174a1.277,1.277,0,0,1,.7-1.161l.58-.232,3.831,7.777A12.467,12.467,0,0,0,52.339,56.362Zm11.84,11.027a5.92,5.92,0,1,1,5.92-5.92A5.945,5.945,0,0,1,64.179,67.389Z" transform="translate(-4.4 -22.7)" fill="#0c090d"/><path d="M56.382,53.1a3.482,3.482,0,1,0,3.482,3.482A3.492,3.492,0,0,0,56.382,53.1Zm0,4.643a1.277,1.277,0,1,1,1.277-1.277A1.288,1.288,0,0,1,56.382,57.743Z" transform="translate(3.397 -17.813)" fill="#0c090d"/></g></g></svg>